<?xml version="1.0" encoding="utf-8"?>
<!-- Generator: Adobe Illustrator 24.0.3, SVG Export Plug-In . SVG Version: 6.00 Build 0)  -->
<svg version="1.1" id="Layer_1" xmlns="http://www.w3.org/2000/svg" xmlns:xlink="http://www.w3.org/1999/xlink" x="0px" y="0px"
	 viewBox="0 0 500 500" style="enable-background:new 0 0 500 500;" xml:space="preserve">
<style type="text/css">
	.st0{fill:none;stroke:#FFFFFF;stroke-width:9;stroke-linecap:round;stroke-miterlimit:10;}
	.st1{fill:none;stroke:#FFFFFF;stroke-width:9;stroke-linecap:round;stroke-linejoin:round;stroke-miterlimit:10;}
</style>
<path class="st0" d="M142.23,500c35.06-50.42,8.78-116.8,3.06-116.28c-41.72,22.12-42.75-12.37-52.53-23.15
	s-21.33-17.31-25.42-27.27c-6.21-15.14-8.38-28.48-6.51-39.64l18.03,4.65l-8.44-24.43c2.63-2.82,5.76-5.33,9.4-7.52
	c15.21-9.15,33.77,14.97,33.77,14.97C91.55,237.97,95.74,46.3,95.74,46.3s-5.19-35.84,155.34-35.84
	c167.74,0,156.42,42.19,156.42,42.19s9.49,177.74-11.09,219.87c15.44-13.31,27.18-14.08,35.43-12.28
	c13.98,3.04,24.66,46.08,6.69,72.03c-13.89,20.07-2.07,42.38-15.95,53c-17.49,13.38-21.92-7.5-28.36-4.85
	C338.11,403.54,374.25,500,374.25,500"/>
<path class="st0" d="M142.23,500"/>
<path class="st1" d="M95.46,69.86l23.55,53.51l23.67-43.22l26.76,50.42l27.78-49.39l23.67,39.1l24.7-38.08c0,0-1.47,57.63,7.5,44.25
	c8.97-13.38,53.22-67.92,53.22-61.74s-8.23,73.06-8.23,77.18s26.76-37.05,30.87-43.22c4.12-6.17,23.67,27.78,25.73,38.08
	s19.55-33.54,19.55-33.54l9.26,8.85c0,0,15.44,14.41,16.46,11.32s8.89-37,8.89-37"/>
<path class="st0" d="M363.16,441.83c0-0.99,3.25-1.8,4.95-1.8h3.11c1.7,0,3.08,0.8,3.08,1.8v19.56c0,0.99-1.38,1.8-3.08,1.8h-3.11
	c-1.7,0-3.76-2.76-3.76-3.75"/>
<path class="st0" d="M378.14,425.46h6.37c1.61,0,2.91,1.31,2.91,2.91v46.48c0,1.61-1.31,2.91-2.91,2.91h-6.37
	c-1.61,0-2.91-1.31-2.91-2.91v-46.48C375.23,426.76,376.53,425.46,378.14,425.46z"/>
<line class="st0" x1="372.16" y1="54.42" x2="322.76" y2="89.41"/>
<line class="st0" x1="372.87" y1="73.11" x2="353.32" y2="91.64"/>
<path class="st0" d="M157.81,463.92h-7c-1.7,0-3.08-0.8-3.08-1.8v-19.56c0-0.99,1.38-1.8,3.08-1.8h3.11c1.7,0,4.7-0.8,6.19-0.03"/>
<path class="st0" d="M143.88,478.49h-6.37c-1.61,0-2.91-1.31-2.91-2.91V429.1c0-1.61,1.31-2.91,2.91-2.91h6.37
	c1.61,0,2.91,1.31,2.91,2.91v46.48C146.8,477.19,145.49,478.49,143.88,478.49z"/>
<path class="st0" d="M151.01,159.3c0,0,3.09,26.28,15.34,42.79"/>
<path class="st0" d="M146.24,166.59"/>
<line class="st0" x1="137.7" y1="166.59" x2="167.94" y2="166.59"/>
<line class="st0" x1="137.7" y1="180.69" x2="167.94" y2="180.69"/>
<line class="st0" x1="149.72" y1="195.4" x2="179.96" y2="195.4"/>
</svg>
